# xmcd
# 
# Track frame offsets:
#     150
#     16062
#     22825
#     33770
#     45515
#     56617
#     68115
#     96070
#     108227
#     119072
#     129282
#     142642
#     156072
# 
# Disc length: 2437
# 
# Revision: 10
# Processed by: cddbd v1.5.2PL0 Copyright (c) Steve Scherf et al.
# Submitted via: fre:ac v1.0.17
# 
DISCID=9409830d
DTITLE=Air - The Virgin Suicides
DYEAR=2000
DGENRE=Electronic: Downtempo
TTITLE0=Playground Love (Gordon Tracks, voc.)
TTITLE1=Clouds Up
TTITLE2=Bathroom Girl
TTITLE3=Cemetary Party
TTITLE4=Dark Messages
TTITLE5=The Word 'Hurricane'
TTITLE6=Dirty Trip
TTITLE7=Highschool Lover (Theme from The Virgin Suicides)
TTITLE8=Afternoon Sister
TTITLE9=Ghost Song
TTITLE10=Empty House
TTITLE11=Dead Bodies
TTITLE12=Suicide Underground
EXTD=\n YEAR: 2000
EXTT0=
EXTT1=
EXTT2=
EXTT3=
EXTT4=
EXTT5=
EXTT6=
EXTT7=
EXTT8=
EXTT9=
EXTT10=
EXTT11=
EXTT12=
PLAYORDER=
